Coordinates
version=1
nRows=8
nColumns=42
inDegrees=yes

Units are S.I. units (second, meters, Newtons, ...)
If the header above contains a line with 'inDegrees', this indicates whether rotational values are in degrees (yes) or radians (no).

endheader
time	pelvis_tilt	pelvis_list	pelvis_rotation	pelvis_tx	pelvis_ty	pelvis_tz	hip_flexion_r	hip_adduction_r	hip_rotation_r	knee_angle_r	knee_adduction_r	knee_angle_r_beta	ankle_angle_r	subtalar_angle_r	mtp_angle_r	hip_flexion_l	hip_adduction_l	hip_rotation_l	knee_angle_l	knee_adduction_l	knee_angle_l_beta	ankle_angle_l	subtalar_angle_l	mtp_angle_l	lumbar_extension	lumbar_bending	lumbar_rotation	arm_flex_r	arm_add_r	arm_rot_r	elbow_flex_r	pro_sup_r	wrist_flex_r	wrist_dev_r	arm_flex_l	arm_add_l	arm_rot_l	elbow_flex_l	pro_sup_l	wrist_flex_l	wrist_dev_l
      0.85000000	     10.53120983	      0.03370993	     -7.11426324	      0.24707540	      0.84146087	     -0.29167537	      9.31183363	     -6.20291853	    -13.23054317	     53.64267384	     -8.24075569	      0.93624128	     10.08758163	     -2.86529519	     -7.53189317	    -12.44677995	      4.40673770	     -8.25062153	      9.08987318	      5.00011402	      0.15864822	     16.46060546	     -1.49848230	     -7.53189317	    -20.73878176	     -2.99946942	      6.14446992	      1.97897019	    -15.31461580	     -4.96200972	     34.02851625	     90.00000001	      0.00000000	      0.00000000	     -3.04148141	     -8.21069719	    -33.27402928	     31.89431010	     90.00000001	      0.00000000	      0.00000000
      0.86000000	     10.36492009	     -0.51793622	     -6.62758476	      0.26151374	      0.84168354	     -0.29222005	     10.46980242	     -5.23742812	    -13.82579403	     50.57198585	     -7.63982733	      0.88264766	     10.57676165	     -2.73995449	     -7.53042603	    -14.26508453	      3.81209632	     -8.16863610	      7.55136260	      5.21700796	      0.13179614	     16.89446424	     -0.51132369	     -7.53042603	    -20.57159412	     -2.07931464	      5.40212740	      2.02369371	    -15.22316236	     -5.16796724	     33.56846954	     90.00000001	      0.00000000	      0.00000000	     -2.66468892	     -8.26615425	    -30.79009297	     33.51976808	     90.00000001	      0.00000000	      0.00000000
      0.87000000	      9.96486461	     -0.80348225	     -6.10222306	      0.27605188	      0.84104140	     -0.29298173	     11.79777047	     -4.65591534	    -14.33511809	     47.36688185	     -6.78452076	      0.82670804	     10.99438642	     -2.87226646	     -7.52941257	    -15.58311171	      3.49405930	     -8.28731835	      6.39763569	      5.34652590	      0.11165981	     17.13988325	      0.37948449	     -7.52941257	    -20.07077196	     -1.40742387	      4.59345275	      1.92984397	    -15.16098359	     -5.34911678	     33.25677505	     90.00000001	      0.00000000	      0.00000000	     -2.16084237	     -8.30210160	    -28.92210698	     35.07485580	     90.00000001	      0.00000000	      0.00000000
      0.88000000	      9.99293718	     -1.20072127	     -5.49889659	      0.29086081	      0.84049733	     -0.29362405	     12.31876324	     -4.01716278	    -14.97487848	     43.64608228	     -5.81907398	      0.76176784	     11.01190186	     -3.21219722	     -7.52799249	    -17.40234678	      3.06133073	     -8.46370161	      5.25838839	      5.48453122	      0.09177619	     17.50361168	      1.15796149	     -7.52799249	    -20.04500839	     -0.66094851	      3.77458920	      1.85072612	    -15.09727694	     -5.73404528	     32.98918237	     90.00000001	      0.00000000	      0.00000000	     -1.78217085	     -8.59238499	    -26.14920617	     36.79757493	     90.00000001	      0.00000000	      0.00000000
      0.89000000	      9.36077179	     -1.03134744	     -5.06440810	      0.30517244	      0.83852771	     -0.29456528	     13.84723596	     -4.09857762	    -15.46142197	     40.27734852	     -4.75045290	      0.70297235	     11.27484191	     -3.27700975	     -7.52736832	    -18.06580756	      3.36457711	     -8.81917088	      4.68384598	      5.30389219	      0.08174853	     17.72481777	      1.77472441	     -7.52736832	    -19.27862109	     -0.48235346	      2.92096460	      1.71109800	    -15.06272566	     -5.86368252	     32.83047078	     90.00000001	      0.00000000	      0.00000000	     -1.09904362	     -8.64802283	    -25.16489677	     38.18032597	     90.00000001	      0.00000000	      0.00000000
      0.90000000	      9.54145817	     -1.36457186	     -4.44949196	      0.32021511	      0.83732408	     -0.29498695	     13.82163152	     -3.64778890	    -16.17795407	     36.06105552	     -3.49886072	      0.62938415	     11.23543449	     -3.55464413	     -7.52587135	    -19.96740849	      2.84253044	     -9.21118588	      3.75802444	      5.74193879	      0.06558990	     18.20493702	      2.71355314	     -7.52587135	    -19.38768134	      0.13939688	      2.13157412	      1.65694638	    -14.98674142	     -6.46369646	     32.54306004	     90.00000001	      0.00000000	      0.00000000	     -0.71879123	     -9.08699661	    -22.47584885	     40.03271768	     90.00000001	      0.00000000	      0.00000000
      0.91000000	      9.28564416	     -1.18483601	     -3.98831454	      0.33484173	      0.83512192	     -0.29572652	     14.45840584	     -3.87349651	    -16.78650776	     32.15096858	     -2.15435449	      0.56114026	     11.46443829	     -3.16203043	     -7.52476488	    -21.03368369	      3.06902621	     -9.71100056	      3.30731402	      5.77023276	      0.05772352	     18.61623077	      3.47437917	     -7.52476488	    -19.02305688	      0.23745188	      1.31717307	      1.58026693	    -14.93864907	     -6.84574173	     32.31645362	     90.00000001	      0.00000000	      0.00000000	     -0.11154936	     -9.32736510	    -21.11437174	     41.63565692	     90.00000001	      0.00000000	      0.00000000
      0.92000000	      9.08455146	     -1.01965315	     -3.51731989	      0.34954743	      0.83275154	     -0.29631673	     14.85287769	     -4.05687225	    -17.59280444	     28.07490134	     -0.90923294	      0.48999947	     11.57799658	     -2.14510591	     -7.52343872	    -22.09590116	      3.22014346	    -10.37932249	      3.03053678	      5.87279872	      0.05289284	     19.00981371	      4.29243362	     -7.52343872	    -18.72712484	      0.32898177	      0.58722463	      1.42123861	    -14.89809490	     -7.37514306	     32.23018413	     90.00000001	      0.00000000	      0.00000000	      0.55336163	     -9.61010360	    -19.66008405	     43.14727902	     90.00000001	      0.00000000	      0.00000000
